<svg width="972" height="200" viewBox="0 0 972 200" fill="none" xmlns="http://www.w3.org/2000/svg">
<path d="M100 200C155.2 200 200 155.2 200 100C200 44.8 155.2 0 100 0C44.8 0 0 44.8 0 100C0 155.2 44.8 200 100 200Z" fill="#171527"/>
<path fill-rule="evenodd" clip-rule="evenodd" d="M99.9999 151.6C128.5 151.6 151.6 128.5 151.6 99.9999C151.6 71.4999 128.5 48.3999 99.9999 48.3999C71.4999 48.3999 48.4 71.4999 48.4 99.9999C48.4 128.5 71.4999 151.6 99.9999 151.6ZM167.3 99.9999C167.3 137.2 137.2 167.3 99.9999 167.3C62.7999 167.3 32.7 137.2 32.7 99.9999C32.7 62.7999 62.7999 32.7 99.9999 32.7C137.2 32.7 167.3 62.7999 167.3 99.9999Z" fill="url(#paint0_linear_2821_9629)"/>
<path d="M328 60.5C319.2 60.5 307.7 64.7 303 74.6V62.1H292.2V137.9H303V96.5C303 78 316.1 71.2 328 71.2C339.6 71.2 346.2 79.8 346.2 93.7V137.9H357V93.8C357.2 73.2 346.4 60.5 328 60.5Z" fill="white"/>
<path d="M497.8 60.5C489 60.5 477.5 64.7 472.8 74.6V62.1H462V137.9H472.8V96.5C472.8 78 485.9 71.2 497.8 71.2C509.4 71.2 516 79.8 516 93.7V137.9H526.8V93.8C527 73.2 516.2 60.5 497.8 60.5Z" fill="white"/>
<path d="M546.9 62.2002V138H557.6L557.5 62.2002H546.9Z" fill="white"/>
<path d="M695.7 99.8001C695.7 75.8001 680.3 60.6001 658.8 60.6001C637.3 60.6001 620.7 75.8001 620.7 99.8001C620.7 123.8 637.2 139.5 658.9 139.5C674 139.5 687.1 131.5 693.2 118C689.8 117.2 685.6 116.4 682.4 115.6C677.7 123.9 669 128.8 658.9 128.8C644.9 128.8 633.7 120.2 631.8 105.4H695.6C695.7 104 695.7 101.4 695.7 99.8001ZM631.7 94.7001C633.8 80.3001 644.9 71.2001 658.8 71.2001C672.6 71.2001 682.6 80.2001 684.7 94.7001H631.7Z" fill="white"/>
<path d="M439.2 62.1001H428.5V137.9H439.2V62.1001Z" fill="white"/>
<path d="M269 62.1001H258.2V137.9H269V62.1001Z" fill="white"/>
<path d="M598.5 27.2002H587.7V62.2002H575.4V73.0002H587.7V138H598.5V73.0002H610.8V62.2002H598.5V27.2002Z" fill="white"/>
<path d="M407.1 27.2002C387.3 27.2002 380.8 41.3002 380.8 59.5002V62.1002H368.5V72.8002H380.8V138H391.6V72.8002H411.5V62.2002H391.6V59.6002C391.4 49.6002 392.7 37.6002 407 37.6002H415V27.3002L407.1 27.2002Z" fill="white"/>
<path d="M263.6 27.2002H263.3C259 27.3002 255.7 30.8002 255.7 35.1002C255.7 39.5002 259.2 43.0002 263.6 43.0002C268 43.0002 271.5 39.5002 271.5 35.1002C271.4 30.7002 267.9 27.2002 263.6 27.2002Z" fill="white"/>
<path d="M552.2 27.2002C547.9 27.2002 544.4 30.7002 544.3 35.1002C544.3 39.5002 547.8 43.0002 552.2 43.0002C556.5 43.0002 560.1 39.5002 560.1 35.1002C560.1 30.7002 556.6 27.2002 552.2 27.2002Z" fill="white"/>
<path d="M433.9 27.1001H433.7C429.4 27.2001 426.1 30.7001 426.1 35.0001C426.1 39.4001 429.6 42.9001 433.9 42.9001C438.2 42.9001 441.8 39.4001 441.8 35.0001C441.7 30.7001 438.2 27.1001 433.9 27.1001Z" fill="white"/>
<path d="M755.5 60.5C745.6 60.5 736 64.9 732 72.4V62.2H712.4V174.8H732V127.9C736 135.5 745.7 139.6 755.5 139.6C775.2 139.6 792.3 124.2 792.3 100C792.3 76.1 775.2 60.5 755.5 60.5ZM752.3 120.7C742 120.7 732.4 113.4 732.3 100.3C732.3 87.6 741.4 79.5 752.3 79.5C763.2 79.5 772.1 88 772.1 100.3C772.1 112.6 763.1 120.7 752.3 120.7Z" fill="white"/>
<path d="M862.7 62.2V71.6C857.2 63.1 846.1 60.5 839.3 60.5C819.5 60.5 800.9 75.7 800.9 100C800.9 124.2 819.4 139.5 839.3 139.5C846.7 139.5 857.8 136.1 862.7 128.3V138H882.3V62.2H862.7ZM842.1 120.3H841.8C830.5 120.4 821.4 111.2 821.3 99.9C821.3 87.6 831.3 79.5 842.1 79.5C852.4 79.5 862.8 87 862.8 99.9C862.7 112.9 852.7 120.3 842.1 120.3Z" fill="white"/>
<path d="M951.1 62L932.3 109.1L913.6 62H892.5L921.5 132.9L904.8 174.5H925.5L971.9 62H951.1Z" fill="white"/>
<defs>
<linearGradient id="paint0_linear_2821_9629" x1="100.003" y1="32.7071" x2="100.003" y2="167.293" gradientUnits="userSpaceOnUse">
<stop stop-color="#00EE26"/>
<stop offset="1" stop-color="#FFC600"/>
</linearGradient>
</defs>
</svg>
